<svg width="100" height="100" fill="none" xmlns="http://www.w3.org/2000/svg"><rect width="100" height="100" rx="25" fill="#41228E"/><path fill-rule="evenodd" clip-rule="evenodd" d="M71.615 48.153a11.85 11.85 0 0 0 .291-2.624c0-6.572-5.326-11.9-11.897-11.9-4.781 0-8.903 2.819-10.796 6.887l.001.001-.076.166-.036.084-.037.084c-.704 1.648-1.026 3.42-.94 5.322l.002.015v.031l.002.026.002.022.002.02c.017.253.038.503.07.753a8.543 8.543 0 0 0-.306-1.385l-.032-.1-.002-.01-.033-.09-.019-.059-.015-.039-.035-.097-.005-.013-.033-.082-.027-.066-.012-.03a7.541 7.541 0 0 0-.882-1.563l-.032-.043-.027-.036-.061-.078-.007-.01-.055-.066-.042-.055-.02-.022-.064-.077a8.387 8.387 0 0 0-1.66-1.464l.002-.004a7.519 7.519 0 0 0-11.165 3.748l-.022.06-.02.06-.007.023-.014.038a7.53 7.53 0 0 0-.282 3.595l-.012-.003-.031-.006-.028-.008h-.005l-.033-.01-.02-.007-.01-.001-.031-.009-.02-.002-.013-.002-.164-.037v-.002l-.033-.005a8.697 8.697 0 0 0-1.756-.176c-.378 0-.751.02-1.116.068l-.002.002-.41.061-.024.006c-4.106.735-7.217 4.316-7.217 8.629a8.769 8.769 0 0 0 8.769 8.77v-.002h40.186l-.006-.024a7.281 7.281 0 0 0 2.618-13.796l-.053-.024-.003-.005-.06-.026a7.306 7.306 0 0 0-3.668-.667h-.004l-.019.003-.021.001-.023.003-.022.001-.022.002-.02.004.036-.056.02-.03.014-.025a11.92 11.92 0 0 0 1.068-2.2l.015-.037.02-.06.036-.1.006-.019c.133-.403.247-.817.347-1.233Z" fill="#fff"/><path d="m70.757 71.622-.614-.016-38.938.016c-7.727 0-13.984-6.258-13.984-13.949a13.92 13.92 0 0 1 11.474-13.729 12.67 12.67 0 0 1 12.05-8.688c1.695 0 3.373.34 4.923.993a17.072 17.072 0 0 1 14.34-7.8c9.418 0 17.08 7.662 17.08 17.08 0 .927-.075 1.853-.223 2.764a12.481 12.481 0 0 1 6.356 10.865c0 6.623-5.178 12.09-11.788 12.444l-.676.02Zm-30.013-33.52a9.83 9.83 0 0 0-9.559 7.463l-.24.964-.987.107a11.08 11.08 0 0 0-9.891 11.037c0 6.123 4.98 11.103 11.103 11.103l.577-.014H70.18l.576.013.531-.013c5.093-.276 9.089-4.494 9.089-9.605a9.631 9.631 0 0 0-5.695-8.782l-1.07-.476.263-1.141c.243-1.052.367-2.139.367-3.228 0-7.849-6.386-14.235-14.233-14.235a14.235 14.235 0 0 0-12.534 7.482l-.687 1.27-1.26-.704a9.817 9.817 0 0 0-4.783-1.242Z" fill="#fff"/></svg>